<?xml version="1.0" encoding="utf-8"?>
<!-- Generator: Adobe Illustrator 24.3.0, SVG Export Plug-In . SVG Version: 6.00 Build 0)  -->
<svg version="1.1" id="Ebene_1" xmlns="http://www.w3.org/2000/svg" x="0px"
     y="0px"
     viewBox="0 0 283.46 283.46" style="enable-background:new 0 0 283.46 283.46;" xml:space="preserve">
<style type="text/css">
	.st0{fill:#2B1E38;}
	.st1{fill:none;stroke:#336DE2;stroke-width:5;stroke-miterlimit:10;}
	.st2{fill:#336DE2;stroke:#336DE2;stroke-width:3;stroke-miterlimit:10;}
</style>
    <rect class="st0" width="283.46" height="283.46"/>
    <ellipse transform="matrix(0.5 -0.866 0.866 0.5 -51.8777 193.6097)" class="st1" cx="141.73" cy="141.73" rx="98.72"
             ry="29.38"/>
    <ellipse transform="matrix(0.866 -0.5 0.5 0.866 -51.8776 89.8545)" class="st1" cx="141.73" cy="141.73" rx="29.38"
             ry="98.72"/>
    <ellipse class="st1" cx="141.73" cy="141.73" rx="98.72" ry="29.38"/>
    <g>
	<g>
		<path class="st2" d="M129.89,156.01l3.07-2.96c2.2,3.36,5.22,4.99,8.18,4.99c5.39,0,7.83-2.73,7.83-8.99v-21.4h-15.89v-4.12h20.82
			v25.93c0,7.08-3.19,12.88-12.64,12.88C137.02,162.33,132.56,160.36,129.89,156.01z"/>
	</g>
</g>
</svg>
